<?xml version="1.0" encoding="utf-8"?>
<!-- Generator: Adobe Illustrator 27.0.0, SVG Export Plug-In . SVG Version: 6.00 Build 0)  -->
<svg version="1.1" id="Capa_1" xmlns="http://www.w3.org/2000/svg" xmlns:xlink="http://www.w3.org/1999/xlink" x="0px" y="0px"
	 viewBox="0 0 1340 288" style="enable-background:new 0 0 1340 288;" xml:space="preserve">
<style type="text/css">
	.st0{fill:#FFFFFF;}
</style>
<g>
	<g>
		<g>
			<path class="st0" d="M253.05,212.33c12.12,2.1,24.48,2.69,36.74,3.93c4.6,0.46,9.26,0.47,13.79,1.3
				c0.99,0.18,1.94,0.43,2.85,0.74c4.69-2.92,9.11-6.22,13.22-9.87c17.96-15.96,6.71-45.65-17.32-45.65h0
				c-6.41,0-12.59,2.38-17.39,6.63c-7.88,6.99-18.25,11.23-29.61,11.23c-24.41,0-44.24-19.59-44.64-43.9
				c-0.41-24.93,19.44-45.23,44.37-45.38c11.52-0.07,22.04,4.23,29.99,11.33c4.74,4.24,10.91,6.53,17.27,6.53h0
				c24.03,0,35.28-29.69,17.32-45.65c-17.1-15.2-39.63-24.43-64.31-24.43c-53.49,0-96.86,43.36-96.86,96.86
				c0,15.74,3.76,30.61,10.42,43.75c3.33,1.73,6.68,3.42,10.07,5.07C202.72,196.38,226.82,207.78,253.05,212.33z"/>
		</g>
		<g>
			<path class="st0" d="M62.63,92.74c0.47,0.53,0.94,1.06,1.41,1.59v-1.59H62.63z"/>
			<path class="st0" d="M64.04,138.79v67.27c0,14.78,11.98,26.76,26.76,26.76s26.76-11.98,26.76-26.76V183.6
				c-4.42-3.38-8.8-6.82-13.13-10.33C90.68,162.11,77.14,150.69,64.04,138.79z"/>
			<path class="st0" d="M135.89,39.22H45.06c-6.32,0-12.13,2.19-16.71,5.86c-0.77,0.62-1.52,1.28-2.22,1.98
				c-2.34,2.34-4.24,5.1-5.59,8.17c-1.45,3.29-2.25,6.93-2.25,10.75c0,3.32,0.61,6.5,1.71,9.44c2.23,5.91,6.48,10.82,11.92,13.88
				c3.88,2.19,8.36,3.44,13.13,3.44h1.46h16.11h1.41l0,0c16.57,18.56,34.4,37.08,53.52,52.31V92.74h18.33
				c14.78,0,26.76-11.98,26.76-26.76C162.65,51.2,150.67,39.22,135.89,39.22z"/>
		</g>
		<path class="st0" d="M323.23,257.96c-0.15-1.29-1.18-2.34-2.47-2.5c-1.4-0.18-2.63,0.66-3.06,1.87h-1.92h-2.22h-0.15h-0.47h-2.24
			c-0.53,0-0.97,0.43-0.97,0.97c0,0.53,0.43,0.97,0.97,0.97h2.71v0h2.38h1.92c0.4,1.1,1.45,1.89,2.69,1.89
			C322.08,261.16,323.42,259.69,323.23,257.96z"/>
		<path class="st0" d="M325.97,245.44c-1.05,0-1.95,0.64-2.33,1.56h-2.63h-0.25h-6.67c-0.53,0-0.96,0.43-0.96,0.96
			s0.43,0.96,0.96,0.96h6.67h0.25h2.63c0.38,0.91,1.28,1.56,2.33,1.56c1.39,0,2.52-1.13,2.52-2.52S327.36,245.44,325.97,245.44z"/>
		<path class="st0" d="M308.38,258.3c0-1.11,0.9-2.01,2.01-2.01h2.04c-0.6-0.87-1.57-1.44-2.68-1.44h-8.99h-4.65
			c-1.91,0-3.45,1.55-3.45,3.45c0,1.91,1.55,3.45,3.45,3.45h4.65h8.99c1.1,0,2.08-0.57,2.68-1.44h-2.04
			C309.28,260.31,308.38,259.41,308.38,258.3z"/>
		<path class="st0" d="M40.62,21.47c-11.19-2.19-22.2-1.71-32.07,5.1C0.79,31.92-1.53,38.14,0.62,47.14
			c2.04,8.55,5.97,16.17,10.69,23.32c-0.15-1.31-0.23-2.64-0.23-3.99c0-4.66,0.93-9.1,2.61-13.11c1.56-3.74,3.78-7.12,6.49-9.96
			c0.81-0.85,1.67-1.66,2.57-2.42c5.32-4.47,12.06-7.14,19.4-7.14h2.91h1.51h20.2h0.59h13.34C67.67,28.72,54.45,24.18,40.62,21.47z"
			/>
		<path class="st0" d="M281.8,242.35h21.1h1.65h5.94c-1.23-9.74-6.9-16.68-15.41-18.19c-4.03-0.72-8.18-0.72-12.27-1.12
			c-10.9-1.07-21.9-1.57-32.67-3.39c-23.32-3.92-44.76-13.74-65.87-23.69c-20.59-9.7-39.89-21.1-57.94-34.1
			c-3.05-2.2-6.07-4.44-9.06-6.73c-21.36-16.4-40.9-35.13-58.69-56.02H43.84h-1.7c-3.44,0-6.75-0.59-9.85-1.68
			c23.84,27.54,51.47,51.26,80.11,73.77c29.88,23.48,62.3,43.41,95.04,62.67c19.03,11.19,38.47,21.7,57.89,32.2
			c7.76,4.2,16.33,5.75,25.22,5.26c5.35-0.3,10.22-3.08,13.84-7.34h-4.91h-0.6c-3.32,2.3-7.34,3.66-11.69,3.66
			c-11.35,0-20.55-9.2-20.55-20.55c0-11.35,9.2-20.55,20.55-20.55c4.95,0,9.49,1.76,13.04,4.67h-1.79c-2.63-1.48-5.67-2.33-8.9-2.33
			c-10.05,0-18.2,8.15-18.2,18.2c0,10.05,8.15,18.2,18.2,18.2c2.4,0,4.69-0.47,6.79-1.31h-1.99c-2.11,0-3.82-2.43-3.82-5.43
			c0-2.24,0.96-4.16,2.32-4.99H281.8c-2.04,0-3.7-2.51-3.7-5.61C278.1,244.86,279.76,242.35,281.8,242.35z M302.97,234.33
			c1.11,0,2.01,0.9,2.01,2.01c0,1.11-0.9,2.01-2.01,2.01c-0.76,0-1.43-0.43-1.77-1.05h-3.13c-0.53,0-0.96-0.43-0.96-0.96
			c0-0.53,0.43-0.96,0.96-0.96h3.13C301.54,234.76,302.2,234.33,302.97,234.33z M287.27,232.9h9.41c1.33,0,2.48,0.75,3.06,1.85
			h-2.35c-0.88,0-1.6,0.72-1.6,1.6c0,0.88,0.72,1.6,1.6,1.6h2.35c-0.58,1.1-1.73,1.85-3.06,1.85h-9.41c-1.91,0-3.45-1.55-3.45-3.45
			S285.36,232.9,287.27,232.9z"/>
		<path class="st0" d="M303.71,244.51h-19.82c-1.92,0-3.48,1.55-3.48,3.45c0,1.91,1.56,3.45,3.48,3.45h21.37v-0.02h7.9
			c1.14,0,2.16-0.55,2.79-1.4h-2.2c-1.13,0-2.04-0.91-2.04-2.04s0.91-2.04,2.04-2.04h2.21c-0.63-0.86-1.65-1.42-2.8-1.42h-7.9
			H303.71z"/>
	</g>
	<g>
		<g>
			<g>
				<rect x="587.99" y="41.39" class="st0" width="31.95" height="187.22"/>
				<path class="st0" d="M869.22,214.41c-12.31,11.83-26.9,17.75-43.79,17.75c-17.83,0-32.86-6.11-45.09-18.3
					C768.11,201.63,762,186.63,762,168.84c0-17.63,6.16-32.55,18.46-44.77c12.31-12.19,27.3-18.3,44.97-18.3
					c16.1,0,30.14,5.4,42.13,16.25l-19.17,25.64c-6.15-6.63-13.81-9.94-22.96-9.94c-8.68,0-16.09,3.04-22.25,9.07
					c-6.15,6.07-9.23,13.41-9.23,22.05c0,8.64,3.08,16.02,9.23,22.17c6.15,6.11,13.57,9.19,22.25,9.19
					c9.47,0,17.28-3.63,23.43-10.89L869.22,214.41z"/>
				<path class="st0" d="M971.25,169.08c0-11.09-4.5-19.72-13.49-25.88c-5.21-3.67-11.2-5.48-17.99-5.48
					c-11.05,0-19.57,4.42-25.56,13.29c-3.79,5.56-5.68,11.56-5.68,18.07c0,10.93,4.5,19.49,13.49,25.64
					c5.52,3.83,11.44,5.72,17.75,5.72c8.68,0,16.09-3.04,22.25-9.15C968.18,185.21,971.25,177.8,971.25,169.08 M1028.77,228.61
					H994.8l-6.71-18.46c-12.62,14.83-28.72,22.25-48.32,22.25c-17.67,0-32.62-6.15-44.85-18.46
					c-12.23-12.31-18.34-27.22-18.34-44.73c0-13.41,3.79-25.52,11.36-36.33c7.57-10.81,17.67-18.5,30.3-23.08
					c7.42-2.68,14.67-4.02,21.78-4.02c13.41,0,25.52,3.83,36.33,11.48c10.81,7.65,18.5,17.79,23.08,30.41L1028.77,228.61z"/>
				<rect x="1170.82" y="41.39" class="st0" width="31.95" height="187.22"/>
				<path class="st0" d="M446.17,228.61c-17.67,0-32.66-6.11-44.97-18.3c-12.31-12.23-18.46-27.18-18.46-44.81V41.39
					c17.65,0.79,31.95,10.16,31.95,26.83v37.55h31.48v27.22h-31.48v32.43c0,8.68,3.08,16.06,9.23,22.13
					c6.15,6.08,13.57,9.11,22.25,9.11V228.61z"/>
				<path class="st0" d="M1301.26,154.29c-5.84-11.05-14.99-16.57-27.46-16.57c-12.62,0-21.85,5.52-27.69,16.57H1301.26z
					 M1337,168.76c0,3.12-0.24,6.27-0.71,9.43h-92.55c-0.61,6.79,4.52,16.21,9.66,19.64c28.51,19.07,19.48-38.44,61.14,13.8
					c2,2.51,0.74,5.09-1.58,6.9c-11.4,8.89-24.3,13.64-39.16,13.64c-17.83,0-32.86-6.11-45.09-18.3
					c-12.23-12.23-18.34-27.22-18.34-45.01c0-17.63,6.15-32.55,18.46-44.77c12.31-12.19,27.3-18.3,44.97-18.3
					c17.67,0,32.62,6.07,44.85,18.26C1330.89,136.22,1337,151.13,1337,168.76z"/>
				<path class="st0" d="M718.43,154.29c-5.84-11.05-14.99-16.57-27.46-16.57c-12.62,0-21.85,5.52-27.69,16.57H718.43z
					 M754.17,168.76c0,3.12-0.24,6.27-0.71,9.43h-92.55c-0.61,6.79,4.52,16.21,9.66,19.64c28.51,19.07,19.48-38.44,61.14,13.8
					c2,2.51,0.74,5.09-1.57,6.9c-11.4,8.89-24.3,13.64-39.16,13.64c-17.83,0-32.86-6.11-45.09-18.3
					c-12.23-12.23-18.35-27.22-18.35-45.01c0-17.63,6.15-32.55,18.46-44.77c12.31-12.19,27.3-18.3,44.97-18.3
					c17.67,0,32.62,6.07,44.85,18.26C748.05,136.22,754.17,151.13,754.17,168.76z"/>
				<path class="st0" d="M544.42,154.29c-5.84-11.05-14.99-16.57-27.46-16.57c-12.62,0-21.85,5.52-27.69,16.57H544.42z
					 M580.16,168.76c0,3.12-0.24,6.27-0.71,9.43h-92.55c-0.61,6.79,4.52,16.21,9.66,19.64c28.51,19.07,19.48-38.44,61.14,13.8
					c2,2.51,0.74,5.09-1.58,6.9c-11.4,8.89-24.3,13.64-39.16,13.64c-17.83,0-32.86-6.11-45.09-18.3
					c-12.23-12.23-18.34-27.22-18.34-45.01c0-17.63,6.15-32.55,18.46-44.77c12.31-12.19,27.3-18.3,44.97-18.3
					c17.67,0,32.62,6.07,44.85,18.26C574.05,136.22,580.16,151.13,580.16,168.76z"/>
				<path class="st0" d="M1130.73,168.84c0-8.48-3.08-15.78-9.23-21.93c-6.15-6.11-13.49-9.19-22.01-9.19
					c-8.68,0-16.09,3.04-22.25,9.07c-6.15,6.07-9.23,13.41-9.23,22.05c0,8.64,3.08,16.02,9.23,22.17
					c6.15,6.11,13.57,9.19,22.25,9.19c8.68,0,16.06-3.08,22.13-9.19C1127.69,184.86,1130.73,177.48,1130.73,168.84 M1162.68,168.84
					c0,17.63-6.11,32.58-18.34,44.89c-12.23,12.27-27.18,18.42-44.85,18.42c-17.83,0-32.86-6.11-45.09-18.3
					c-12.23-12.23-18.34-27.26-18.34-45.05V41.39c24.26,0.49,31.95,8.85,31.95,26.84v45.59c9.62-5.37,20.12-8.05,31.48-8.05
					c17.67,0,32.62,6.11,44.85,18.3C1156.57,136.3,1162.68,151.21,1162.68,168.84z"/>
			</g>
		</g>
	</g>
</g>
</svg>
