<?xml version="1.0" encoding="utf-8"?>
<!-- Generator: Adobe Illustrator 27.0.0, SVG Export Plug-In . SVG Version: 6.00 Build 0)  -->
<svg version="1.1" id="Capa_1" xmlns="http://www.w3.org/2000/svg" xmlns:xlink="http://www.w3.org/1999/xlink" x="0px" y="0px"
	 viewBox="0 0 1920 463" style="enable-background:new 0 0 1920 463;" xml:space="preserve">
<style type="text/css">
	.st0{fill:#FFFFFF;}
</style>
<g>
	<g>
		<path class="st0" d="M416.04,337.43c19.5,3.38,39.39,4.33,59.12,6.32c7.4,0.75,14.91,0.76,22.19,2.1
			c1.59,0.29,3.12,0.69,4.59,1.19c7.54-4.69,14.66-10.01,21.27-15.88c28.89-25.68,10.79-73.45-27.86-73.45h0
			c-10.32,0-20.26,3.83-27.98,10.67c-12.68,11.25-29.36,18.08-47.65,18.08c-39.28,0-71.18-31.52-71.82-70.64
			c-0.65-40.11,31.28-72.78,71.39-73.02c18.54-0.11,35.46,6.8,48.26,18.23c7.63,6.82,17.55,10.51,27.79,10.51h0
			c38.66,0,56.76-47.77,27.86-73.45C495.68,73.65,459.44,58.8,419.73,58.8c-86.07,0-155.85,69.77-155.85,155.84
			c0,25.33,6.05,49.25,16.77,70.4c5.35,2.79,10.75,5.51,16.2,8.16C335.05,311.77,373.85,330.11,416.04,337.43z"/>
	</g>
	<g>
		<path class="st0" d="M109.66,145.01c0.75,0.85,1.51,1.7,2.27,2.55v-2.55H109.66z"/>
		<path class="st0" d="M111.92,219.1v108.25c0,23.78,19.28,43.06,43.06,43.06s43.06-19.28,43.06-43.06V291.2
			c-7.11-5.44-14.15-10.98-21.12-16.63C154.79,256.62,132.99,238.26,111.92,219.1z"/>
		<path class="st0" d="M227.53,58.89H81.39c-10.17,0-19.51,3.53-26.88,9.42c-1.25,1-2.44,2.06-3.57,3.19
			c-3.76,3.76-6.83,8.21-8.99,13.15c-2.33,5.29-3.62,11.14-3.62,17.3c0,5.35,0.98,10.47,2.76,15.19c3.58,9.5,10.43,17.4,19.17,22.34
			c6.24,3.52,13.45,5.53,21.13,5.53h2.35h25.92h2.27l0,0c26.66,29.86,55.34,59.67,86.12,84.16v-84.16h29.49
			c23.78,0,43.06-19.28,43.06-43.06C270.59,78.17,251.31,58.89,227.53,58.89z"/>
	</g>
	<path class="st0" d="M528.96,410.86c-0.23-2.07-1.9-3.76-3.97-4.03c-2.25-0.28-4.22,1.06-4.93,3.01h-3.09h-3.58h-0.25h-0.75h-3.6
		c-0.86,0-1.56,0.7-1.56,1.56c0,0.86,0.7,1.56,1.56,1.56h4.36v-0.01h3.82h3.09c0.64,1.77,2.33,3.05,4.33,3.05
		C527.11,416,529.28,413.64,528.96,410.86z"/>
	<path class="st0" d="M533.37,390.71c-1.69,0-3.14,1.04-3.75,2.51h-4.23h-0.4h-10.74c-0.86,0-1.55,0.69-1.55,1.55
		c0,0.86,0.69,1.55,1.55,1.55h10.74h0.4h4.23c0.61,1.47,2.06,2.51,3.75,2.51c2.24,0,4.06-1.82,4.06-4.06
		S535.61,390.71,533.37,390.71z"/>
	<path class="st0" d="M505.07,411.4c0-1.79,1.45-3.24,3.24-3.24h3.28c-0.96-1.4-2.53-2.31-4.31-2.31h-14.46h-7.48
		c-3.07,0-5.55,2.49-5.55,5.55c0,3.07,2.49,5.55,5.55,5.55h7.48h14.46c1.77,0,3.34-0.91,4.31-2.31h-3.28
		C506.52,414.64,505.07,413.18,505.07,411.4z"/>
	<path class="st0" d="M74.23,30.34c-18.01-3.52-35.72-2.75-51.6,8.2C10.16,47.16,6.42,57.17,9.88,71.64
		c3.29,13.76,9.6,26.02,17.19,37.52c-0.24-2.11-0.37-4.25-0.37-6.42c0-7.5,1.5-14.64,4.2-21.09c2.52-6.02,6.08-11.45,10.44-16.03
		c1.31-1.38,2.69-2.67,4.14-3.89c8.56-7.19,19.41-11.49,31.21-11.49h4.69h2.43h32.5h0.95h21.46C117.76,42,96.49,34.69,74.23,30.34z"
		/>
	<path class="st0" d="M462.31,385.74h33.95h2.65h9.56c-1.98-15.67-11.1-26.84-24.8-29.27c-6.48-1.15-13.16-1.16-19.74-1.81
		c-17.54-1.72-35.23-2.53-52.57-5.45c-37.53-6.31-72.02-22.11-105.99-38.12c-33.13-15.61-64.18-33.96-93.23-54.87
		c-4.91-3.54-9.77-7.15-14.57-10.84c-34.37-26.39-65.8-56.53-94.44-90.14H79.43H76.7c-5.54,0-10.87-0.95-15.85-2.7
		c38.36,44.31,82.81,82.48,128.9,118.7c48.08,37.79,100.25,69.84,152.93,100.83c30.62,18.01,61.9,34.91,93.15,51.81
		c12.48,6.75,26.28,9.26,40.57,8.46c8.61-0.48,16.45-4.95,22.27-11.8h-7.9h-0.96c-5.34,3.71-11.82,5.89-18.81,5.89
		c-18.26,0-33.06-14.8-33.06-33.06c0-18.26,14.8-33.06,33.06-33.06c7.97,0,15.27,2.83,20.98,7.52h-2.88
		c-4.24-2.38-9.12-3.75-14.33-3.75c-16.18,0-29.29,13.11-29.29,29.29c0,16.18,13.11,29.29,29.29,29.29c3.86,0,7.55-0.75,10.92-2.11
		h-3.2c-3.4,0-6.15-3.91-6.15-8.73c0-3.61,1.54-6.7,3.74-8.03h-17.76c-3.29,0-5.95-4.04-5.95-9.02
		C456.35,389.78,459.02,385.74,462.31,385.74z M496.36,372.84c1.79,0,3.24,1.45,3.24,3.24c0,1.79-1.45,3.24-3.24,3.24
		c-1.23,0-2.3-0.68-2.85-1.69h-5.04c-0.86,0-1.55-0.69-1.55-1.55c0-0.86,0.69-1.55,1.55-1.55h5.04
		C494.06,373.52,495.13,372.84,496.36,372.84z M471.1,370.53h15.13c2.14,0,3.99,1.21,4.92,2.98h-3.78c-1.42,0-2.58,1.15-2.58,2.58
		c0,1.42,1.15,2.58,2.58,2.58h3.78c-0.93,1.77-2.78,2.98-4.92,2.98H471.1c-3.07,0-5.55-2.49-5.55-5.55S468.04,370.53,471.1,370.53z"
		/>
	<path class="st0" d="M497.56,389.21h-31.89c-3.09,0-5.59,2.49-5.59,5.56c0,3.07,2.5,5.56,5.59,5.56h34.38v-0.02h12.71
		c1.84,0,3.47-0.89,4.48-2.25h-3.54c-1.81,0-3.28-1.47-3.28-3.28s1.47-3.28,3.28-3.28h3.56c-1.01-1.38-2.65-2.28-4.5-2.28h-12.71
		H497.56z"/>
</g>
<g>
	<g>
		<g>
			<rect x="889.04" y="61.05" class="st0" width="42.32" height="247.95"/>
			<path class="st0" d="M1261.49,290.19c-16.3,15.67-35.63,23.51-57.99,23.51c-23.62,0-43.52-8.1-59.71-24.24
				c-16.2-16.2-24.29-36.05-24.29-59.61c0-23.35,8.15-43.1,24.45-59.3c16.3-16.14,36.15-24.24,59.56-24.24
				c21.32,0,39.91,7.16,55.8,21.52l-25.39,33.96c-8.15-8.78-18.29-13.17-30.41-13.17c-11.49,0-21.32,4.02-29.47,12.02
				c-8.15,8.04-12.23,17.76-12.23,29.2c0,11.44,4.08,21.21,12.23,29.36c8.15,8.1,17.97,12.17,29.47,12.17
				c12.54,0,22.88-4.81,31.03-14.42L1261.49,290.19z"/>
			<path class="st0" d="M1396.62,230.16c0-14.68-5.96-26.12-17.87-34.27c-6.9-4.86-14.84-7.26-23.82-7.26
				c-14.63,0-25.91,5.85-33.85,17.61c-5.02,7.37-7.52,15.31-7.52,23.93c0,14.47,5.96,25.81,17.87,33.96
				c7.31,5.07,15.15,7.57,23.51,7.57c11.49,0,21.32-4.02,29.47-12.12C1392.54,251.53,1396.62,241.71,1396.62,230.16 M1472.79,309
				h-44.98l-8.88-24.45c-16.72,19.64-38.03,29.47-64,29.47c-23.41,0-43.21-8.15-59.4-24.45c-16.2-16.3-24.29-36.05-24.29-59.24
				c0-17.76,5.02-33.8,15.05-48.12c10.03-14.31,23.4-24.5,40.12-30.56c9.82-3.55,19.44-5.33,28.84-5.33
				c17.76,0,33.8,5.07,48.12,15.2c14.31,10.14,24.5,23.56,30.56,40.28L1472.79,309z"/>
			<rect x="1660.92" y="61.05" class="st0" width="42.32" height="247.95"/>
			<path class="st0" d="M701.22,309c-23.4,0-43.26-8.1-59.56-24.24c-16.3-16.2-24.45-36-24.45-59.35V61.05
				c23.38,1.04,42.32,13.45,42.32,35.53v49.73h41.69v36.05h-41.69v42.94c0,11.49,4.08,21.26,12.23,29.31
				c8.15,8.05,17.97,12.07,29.47,12.07V309z"/>
			<path class="st0" d="M1833.67,210.57c-7.73-14.63-19.85-21.94-36.36-21.94c-16.72,0-28.94,7.31-36.68,21.94H1833.67z
				 M1881,229.75c0,4.13-0.31,8.31-0.94,12.49H1757.5c-0.81,8.99,5.99,21.46,12.79,26.01c37.76,25.25,25.8-50.91,80.97,18.27
				c2.65,3.33,0.98,6.74-2.09,9.13c-15.1,11.78-32.18,18.06-51.86,18.06c-23.61,0-43.52-8.1-59.72-24.24
				c-16.2-16.2-24.29-36.05-24.29-59.61c0-23.35,8.15-43.1,24.45-59.3c16.3-16.14,36.15-24.24,59.56-24.24
				c23.4,0,43.21,8.04,59.4,24.19C1872.9,186.65,1881,206.39,1881,229.75z"/>
			<path class="st0" d="M1061.79,210.57c-7.73-14.63-19.85-21.94-36.36-21.94c-16.72,0-28.94,7.31-36.68,21.94H1061.79z
				 M1109.12,229.75c0,4.13-0.32,8.31-0.94,12.49H985.61c-0.81,8.99,5.99,21.46,12.79,26.01c37.76,25.25,25.8-50.91,80.97,18.27
				c2.65,3.33,0.98,6.74-2.09,9.13c-15.1,11.78-32.18,18.06-51.86,18.06c-23.61,0-43.52-8.1-59.71-24.24
				c-16.2-16.2-24.3-36.05-24.3-59.61c0-23.35,8.15-43.1,24.45-59.3c16.3-16.14,36.15-24.24,59.56-24.24
				c23.4,0,43.21,8.04,59.4,24.19C1101.02,186.65,1109.12,206.39,1109.12,229.75z"/>
			<path class="st0" d="M831.34,210.57c-7.73-14.63-19.85-21.94-36.36-21.94c-16.72,0-28.94,7.31-36.67,21.94H831.34z
				 M878.67,229.75c0,4.13-0.31,8.31-0.94,12.49H755.17c-0.81,8.99,5.99,21.46,12.79,26.01c37.76,25.25,25.8-50.91,80.97,18.27
				c2.65,3.33,0.98,6.74-2.09,9.13c-15.1,11.78-32.18,18.06-51.86,18.06c-23.61,0-43.52-8.1-59.71-24.24
				c-16.2-16.2-24.29-36.05-24.29-59.61c0-23.35,8.15-43.1,24.45-59.3c16.3-16.14,36.15-24.24,59.56-24.24
				c23.41,0,43.21,8.04,59.4,24.19C870.57,186.65,878.67,206.39,878.67,229.75z"/>
			<path class="st0" d="M1607.82,229.85c0-11.23-4.07-20.9-12.22-29.05c-8.15-8.1-17.87-12.17-29.15-12.17
				c-11.49,0-21.32,4.02-29.47,12.02c-8.15,8.04-12.22,17.76-12.22,29.2c0,11.44,4.07,21.21,12.22,29.36
				c8.15,8.1,17.97,12.17,29.47,12.17c11.49,0,21.26-4.08,29.31-12.17C1603.8,251.06,1607.82,241.29,1607.82,229.85 M1650.14,229.85
				c0,23.35-8.1,43.15-24.29,59.45c-16.2,16.25-36,24.4-59.4,24.4c-23.62,0-43.52-8.1-59.71-24.24
				c-16.2-16.2-24.29-36.1-24.29-59.66V61.05c32.13,0.64,42.32,11.71,42.32,35.54v60.38c12.75-7.11,26.64-10.66,41.69-10.66
				c23.41,0,43.21,8.1,59.4,24.24C1642.04,186.75,1650.14,206.5,1650.14,229.85z"/>
		</g>
		<g>
			<path class="st0" d="M662.8,394.24h-10.2l-1.42,8.5h10.29l-1.51,9.16h-10.39l-2.46,14.92h-9.63l2.46-14.92h-9.63l-2.46,14.92
				h-9.54l2.46-14.92h-10.3l1.51-9.16h10.39l1.42-8.5H613.3l1.51-9.26h10.48l2.46-14.83h9.54l-2.46,14.83h9.63l2.46-14.83h9.63
				l-2.46,14.83h10.2L662.8,394.24z M641.54,402.74l1.42-8.5h-9.63l-1.42,8.5H641.54z"/>
			<path class="st0" d="M679.33,422.95c-6.52-6.61-9.73-14.74-9.73-24.46s3.21-17.95,9.73-24.46c6.52-6.61,14.73-9.92,24.65-9.92
				c12,0,22.76,6.04,28.43,15.58l-11.24,6.52c-3.31-5.95-9.63-9.45-17.19-9.45c-6.42,0-11.62,1.98-15.58,6.04
				c-3.87,4.06-5.86,9.26-5.86,15.68c0,6.33,1.98,11.52,5.86,15.58c3.97,4.06,9.16,6.04,15.58,6.04c7.56,0,14.07-3.59,17.19-9.35
				l11.24,6.52c-5.67,9.54-16.34,15.58-28.43,15.58C694.06,432.87,685.84,429.56,679.33,422.95z"/>
			<path class="st0" d="M762.64,432.87c-6.99,0-12.94-2.36-17.76-7.18c-4.82-4.82-7.18-10.77-7.18-17.76s2.36-12.84,7.18-17.66
				c4.82-4.82,10.77-7.27,17.76-7.27s12.94,2.46,17.76,7.27c4.82,4.82,7.27,10.67,7.27,17.66s-2.46,12.94-7.27,17.76
				C775.58,430.5,769.63,432.87,762.64,432.87z M762.64,420.96c3.68,0,6.71-1.23,9.16-3.68c2.46-2.46,3.68-5.57,3.68-9.35
				c0-3.78-1.23-6.89-3.68-9.35c-2.46-2.46-5.48-3.68-9.16-3.68s-6.71,1.23-9.16,3.68c-2.36,2.46-3.59,5.57-3.59,9.35
				c0,3.78,1.23,6.9,3.59,9.35C755.93,419.74,758.96,420.96,762.64,420.96z"/>
			<path class="st0" d="M835.27,388.19c3.4,3.5,5.1,8.22,5.1,14.36v29h-12.18v-27.49c0-6.33-3.68-9.73-9.35-9.73
				c-6.33,0-10.39,3.87-10.39,11.71v25.5h-12.18v-47.23h12.18v5.29c2.93-4.44,7.65-6.61,14.07-6.61
				C827.72,383,831.97,384.7,835.27,388.19z"/>
			<path class="st0" d="M861.06,412.94c1.61,5.95,6.04,8.88,13.32,8.88c4.63,0,8.22-1.61,10.58-4.72l9.82,5.67
				c-4.63,6.71-11.52,10.11-20.59,10.11c-7.84,0-14.07-2.36-18.8-7.08s-7.08-10.67-7.08-17.85c0-7.08,2.36-13.03,6.99-17.76
				c4.63-4.82,10.67-7.18,17.95-7.18c6.9,0,12.66,2.36,17.1,7.18c4.53,4.82,6.8,10.67,6.8,17.76c0,1.61-0.19,3.21-0.47,5.01H861.06z
				 M884.96,403.49c-1.42-6.42-6.14-9.54-11.71-9.54c-6.52,0-10.96,3.5-12.37,9.54H884.96z"/>
			<path class="st0" d="M909.9,425.69c-4.72-4.82-7.08-10.67-7.08-17.76s2.36-12.94,7.08-17.76c4.82-4.82,10.77-7.18,17.85-7.18
				c9.16,0,17.28,4.72,21.16,12.18l-10.48,6.14c-1.89-3.87-5.95-6.33-10.77-6.33c-7.27,0-12.66,5.38-12.66,12.94
				c0,3.68,1.23,6.8,3.59,9.26c2.36,2.36,5.38,3.59,9.07,3.59c4.91,0,8.97-2.36,10.86-6.23l10.58,6.04
				c-4.16,7.46-12.18,12.28-21.35,12.28C920.66,432.87,914.71,430.5,909.9,425.69z"/>
			<path class="st0" d="M982.53,396.03h-10.67v19.65c0,5.1,3.68,5.2,10.67,4.82v11.05c-16.72,1.89-22.86-2.93-22.86-15.87v-19.65
				h-8.22v-11.71h8.22v-9.54l12.18-3.68v13.22h10.67V396.03z"/>
			<path class="st0" d="M1025.61,384.32h12.18v47.23h-12.18v-5.57c-3.68,4.63-8.78,6.89-15.4,6.89c-6.33,0-11.71-2.36-16.25-7.18
				c-4.44-4.82-6.71-10.77-6.71-17.76s2.27-12.84,6.71-17.66c4.53-4.82,9.92-7.27,16.25-7.27c6.61,0,11.71,2.27,15.4,6.89V384.32z
				 M1012.48,421.25c3.78,0,6.89-1.23,9.35-3.68c2.55-2.55,3.78-5.76,3.78-9.63c0-3.87-1.23-7.08-3.78-9.54
				c-2.46-2.55-5.57-3.78-9.35-3.78c-3.78,0-6.9,1.23-9.35,3.78c-2.46,2.46-3.68,5.67-3.68,9.54c0,3.87,1.23,7.08,3.68,9.63
				C1005.58,420.02,1008.7,421.25,1012.48,421.25z"/>
			<path class="st0" d="M1087.85,388.19c3.4,3.5,5.1,8.22,5.1,14.36v29h-12.18v-27.49c0-6.33-3.68-9.73-9.35-9.73
				c-6.33,0-10.39,3.87-10.39,11.71v25.5h-12.18v-47.23h12.18v5.29c2.93-4.44,7.65-6.61,14.07-6.61
				C1080.29,383,1084.54,384.7,1087.85,388.19z"/>
			<path class="st0" d="M1139.14,365.43h12.18v66.12h-12.18v-5.57c-3.59,4.63-8.69,6.89-15.3,6.89c-6.33,0-11.81-2.36-16.34-7.18
				c-4.44-4.82-6.71-10.77-6.71-17.76s2.27-12.84,6.71-17.66c4.53-4.82,10.01-7.27,16.34-7.27c6.61,0,11.71,2.27,15.3,6.89V365.43z
				 M1126.11,421.25c3.78,0,6.89-1.23,9.35-3.68c2.46-2.55,3.68-5.76,3.68-9.63c0-3.87-1.23-7.08-3.68-9.54
				c-2.46-2.55-5.57-3.78-9.35-3.78c-3.78,0-6.9,1.23-9.45,3.78c-2.46,2.46-3.68,5.67-3.68,9.54c0,3.87,1.23,7.08,3.68,9.63
				C1119.21,420.02,1122.33,421.25,1126.11,421.25z"/>
			<path class="st0" d="M1184.95,432.87c-6.99,0-12.94-2.36-17.76-7.18c-4.82-4.82-7.18-10.77-7.18-17.76s2.36-12.84,7.18-17.66
				c4.82-4.82,10.77-7.27,17.76-7.27c6.99,0,12.94,2.46,17.76,7.27c4.82,4.82,7.27,10.67,7.27,17.66s-2.46,12.94-7.27,17.76
				C1197.89,430.5,1191.94,432.87,1184.95,432.87z M1184.95,420.96c3.68,0,6.71-1.23,9.16-3.68c2.46-2.46,3.68-5.57,3.68-9.35
				c0-3.78-1.23-6.89-3.68-9.35s-5.48-3.68-9.16-3.68c-3.68,0-6.71,1.23-9.16,3.68c-2.36,2.46-3.59,5.57-3.59,9.35
				c0,3.78,1.23,6.9,3.59,9.35C1178.25,419.74,1181.27,420.96,1184.95,420.96z"/>
			<path class="st0" d="M1250.41,432.87c-9.54,0-17.66-3.31-24.37-9.92c-6.61-6.71-9.92-14.83-9.92-24.46
				c0-9.63,3.31-17.76,9.92-24.37c6.71-6.71,14.83-10.01,24.37-10.01c9.54,0,17.66,3.31,24.37,10.01
				c6.71,6.61,10.01,14.73,10.01,24.37c0,9.63-3.31,17.76-10.01,24.46C1268.07,429.56,1259.95,432.87,1250.41,432.87z
				 M1250.41,420.12c6.04,0,11.14-1.98,15.21-6.04s6.14-9.26,6.14-15.58c0-6.33-2.08-11.52-6.14-15.58s-9.16-6.14-15.21-6.14
				s-11.15,2.08-15.21,6.14s-6.14,9.26-6.14,15.58c0,6.33,2.08,11.52,6.14,15.58S1244.37,420.12,1250.41,420.12z"/>
			<path class="st0" d="M1337.12,390.27c4.53,4.82,6.8,10.67,6.8,17.66s-2.27,12.94-6.8,17.76c-4.44,4.82-9.92,7.18-16.25,7.18
				c-6.61,0-11.71-2.27-15.3-6.89v24.46h-12.18v-66.12h12.18v5.57c3.59-4.63,8.69-6.89,15.3-6.89
				C1327.2,383,1332.68,385.45,1337.12,390.27z M1318.61,421.25c3.78,0,6.9-1.23,9.35-3.68c2.55-2.55,3.78-5.76,3.78-9.63
				c0-3.87-1.23-7.08-3.78-9.54c-2.46-2.55-5.57-3.78-9.35-3.78c-3.78,0-6.89,1.23-9.35,3.78c-2.46,2.46-3.68,5.67-3.68,9.54
				c0,3.87,1.23,7.08,3.68,9.63C1311.71,420.02,1314.83,421.25,1318.61,421.25z"/>
			<path class="st0" d="M1375,432.87c-6.99,0-12.94-2.36-17.76-7.18c-4.82-4.82-7.18-10.77-7.18-17.76s2.36-12.84,7.18-17.66
				c4.82-4.82,10.77-7.27,17.76-7.27c6.99,0,12.94,2.46,17.76,7.27c4.82,4.82,7.27,10.67,7.27,17.66s-2.46,12.94-7.27,17.76
				C1387.94,430.5,1381.99,432.87,1375,432.87z M1375,420.96c3.68,0,6.71-1.23,9.16-3.68c2.46-2.46,3.68-5.57,3.68-9.35
				c0-3.78-1.23-6.89-3.68-9.35c-2.46-2.46-5.48-3.68-9.16-3.68s-6.71,1.23-9.16,3.68c-2.36,2.46-3.59,5.57-3.59,9.35
				c0,3.78,1.23,6.9,3.59,9.35C1368.29,419.74,1371.31,420.96,1375,420.96z"/>
			<path class="st0" d="M1420.81,392.44c2.27-6.04,7.93-9.07,14.36-9.07v13.6c-3.68-0.47-7.08,0.28-10.01,2.27s-4.34,5.2-4.34,9.73
				v22.57h-12.18v-47.23h12.18V392.44z"/>
			<path class="st0" d="M1470.59,396.03h-10.67v19.65c0,5.1,3.68,5.2,10.67,4.82v11.05c-16.72,1.89-22.86-2.93-22.86-15.87v-19.65
				h-8.22v-11.71h8.22v-9.54l12.18-3.68v13.22h10.67V396.03z"/>
			<path class="st0" d="M1511.11,384.32h12.18v47.23h-12.18v-5.29c-2.93,4.44-7.65,6.61-14.07,6.61c-5.19,0-9.44-1.7-12.84-5.19
				c-3.31-3.5-5.01-8.22-5.01-14.36v-29h12.18v27.49c0,6.33,3.68,9.73,9.35,9.73c6.33,0,10.39-3.87,10.39-11.71V384.32z"/>
			<path class="st0" d="M1573.45,388.19c3.4,3.5,5.1,8.22,5.1,14.36v29h-12.18v-27.49c0-6.33-3.68-9.73-9.35-9.73
				c-6.33,0-10.39,3.87-10.39,11.71v25.5h-12.18v-47.23h12.18v5.29c2.93-4.44,7.65-6.61,14.07-6.61
				C1565.89,383,1570.14,384.7,1573.45,388.19z"/>
			<path class="st0" d="M1587.52,371.19c0-4.06,3.4-7.56,7.46-7.56c4.16,0,7.56,3.5,7.56,7.56s-3.4,7.46-7.56,7.46
				C1590.92,378.65,1587.52,375.25,1587.52,371.19z M1588.94,431.54v-47.23h12.18v47.23H1588.94z"/>
			<path class="st0" d="M1648.07,365.43h12.18v66.12h-12.18v-5.57c-3.59,4.63-8.69,6.89-15.3,6.89c-6.33,0-11.81-2.36-16.34-7.18
				c-4.44-4.82-6.71-10.77-6.71-17.76s2.27-12.84,6.71-17.66c4.53-4.82,10.01-7.27,16.34-7.27c6.61,0,11.71,2.27,15.3,6.89V365.43z
				 M1635.03,421.25c3.78,0,6.89-1.23,9.35-3.68c2.46-2.55,3.68-5.76,3.68-9.63c0-3.87-1.23-7.08-3.68-9.54
				c-2.46-2.55-5.57-3.78-9.35-3.78c-3.78,0-6.9,1.23-9.45,3.78c-2.46,2.46-3.68,5.67-3.68,9.54c0,3.87,1.23,7.08,3.68,9.63
				C1628.14,420.02,1631.26,421.25,1635.03,421.25z"/>
			<path class="st0" d="M1707.29,384.32h12.18v47.23h-12.18v-5.57c-3.68,4.63-8.78,6.89-15.4,6.89c-6.33,0-11.71-2.36-16.25-7.18
				c-4.44-4.82-6.71-10.77-6.71-17.76s2.27-12.84,6.71-17.66c4.53-4.82,9.92-7.27,16.25-7.27c6.61,0,11.71,2.27,15.4,6.89V384.32z
				 M1694.16,421.25c3.78,0,6.89-1.23,9.35-3.68c2.55-2.55,3.78-5.76,3.78-9.63c0-3.87-1.23-7.08-3.78-9.54
				c-2.46-2.55-5.57-3.78-9.35-3.78c-3.78,0-6.9,1.23-9.35,3.78c-2.46,2.46-3.68,5.67-3.68,9.54c0,3.87,1.23,7.08,3.68,9.63
				C1687.27,420.02,1690.39,421.25,1694.16,421.25z"/>
			<path class="st0" d="M1766.33,365.43h12.18v66.12h-12.18v-5.57c-3.59,4.63-8.69,6.89-15.3,6.89c-6.33,0-11.81-2.36-16.34-7.18
				c-4.44-4.82-6.71-10.77-6.71-17.76s2.27-12.84,6.71-17.66c4.53-4.82,10.01-7.27,16.34-7.27c6.61,0,11.71,2.27,15.3,6.89V365.43z
				 M1753.29,421.25c3.78,0,6.89-1.23,9.35-3.68c2.46-2.55,3.68-5.76,3.68-9.63c0-3.87-1.23-7.08-3.68-9.54
				c-2.46-2.55-5.57-3.78-9.35-3.78c-3.78,0-6.9,1.23-9.45,3.78c-2.46,2.46-3.68,5.67-3.68,9.54c0,3.87,1.23,7.08,3.68,9.63
				C1746.4,420.02,1749.51,421.25,1753.29,421.25z"/>
			<path class="st0" d="M1799.95,412.94c1.61,5.95,6.04,8.88,13.32,8.88c4.63,0,8.22-1.61,10.58-4.72l9.82,5.67
				c-4.63,6.71-11.52,10.11-20.59,10.11c-7.84,0-14.07-2.36-18.8-7.08s-7.08-10.67-7.08-17.85c0-7.08,2.36-13.03,6.99-17.76
				c4.63-4.82,10.67-7.18,17.95-7.18c6.9,0,12.66,2.36,17.1,7.18c4.53,4.82,6.8,10.67,6.8,17.76c0,1.61-0.19,3.21-0.47,5.01H1799.95
				z M1823.85,403.49c-1.42-6.42-6.14-9.54-11.71-9.54c-6.52,0-10.96,3.5-12.37,9.54H1823.85z"/>
			<path class="st0" d="M1862.48,402.92c6.9,1.42,15.87,4.72,15.77,14.83c0,4.82-1.79,8.59-5.48,11.24
				c-3.59,2.55-8.12,3.87-13.51,3.87c-9.73,0-16.34-3.78-19.83-11.24l10.58-5.95c1.42,4.06,4.44,6.14,9.26,6.14
				c4.34,0,6.52-1.32,6.52-4.06c0-2.55-3.78-3.97-8.6-5.19c-6.99-1.79-15.77-4.72-15.77-14.55c0-4.63,1.7-8.31,5.1-10.96
				c3.49-2.74,7.75-4.06,12.85-4.06c7.65,0,14.26,3.59,17.95,10.01l-10.39,5.67c-1.51-3.21-4.06-4.82-7.56-4.82
				c-3.12,0-5.48,1.51-5.48,3.87C1853.89,400.28,1857.67,401.7,1862.48,402.92z"/>
		</g>
	</g>
</g>
</svg>
