<?xml version="1.0" encoding="utf-8"?>
<!-- Generator: Adobe Illustrator 27.0.0, SVG Export Plug-In . SVG Version: 6.00 Build 0)  -->
<svg version="1.1" id="Capa_1" xmlns="http://www.w3.org/2000/svg" xmlns:xlink="http://www.w3.org/1999/xlink" x="0px" y="0px"
	 viewBox="0 0 1728 1080" style="enable-background:new 0 0 1728 1080;" xml:space="preserve">
<style type="text/css">
	.st0{fill:#EBEBFF;}
	.st1{fill:#D6D7F4;}
	.st2{fill:#3D5AC4;}
	.st3{fill:#5571E9;}
	.st4{fill:#27429C;}
	.st5{fill:#312C76;}
	.st6{fill:#151247;}
	.st7{opacity:0.16;fill:#5571E9;}
	.st8{clip-path:url(#XMLID_00000036938307699118719770000006007109629890568626_);fill:#FFFFFF;}
	.st9{fill:#14103D;}
	.st10{fill:#EB8175;}
	.st11{fill:#231C61;}
	.st12{fill:#E1AD9D;}
	.st13{fill:#C8C6F2;}
	.st14{fill:#D8D7FD;}
	.st15{fill:#091218;}
	.st16{fill:#1B2934;}
	.st17{fill:#FFFFFF;}
	.st18{fill:#E16C5F;}
	.st19{clip-path:url(#XMLID_00000045593046711316541680000002508140953407930285_);fill:#231C61;}
	.st20{fill:#F5D100;}
	.st21{fill:none;stroke:#F1AB00;stroke-width:0.2802;stroke-miterlimit:10;}
	.st22{fill:none;stroke:#FFFFFF;stroke-width:1.1206;stroke-linecap:round;stroke-linejoin:round;stroke-miterlimit:10;}
	.st23{fill:#334FBE;}
	.st24{fill:#4265D1;}
	.st25{clip-path:url(#XMLID_00000168099814440259196750000014703182846627109297_);fill:#231C61;}
	.st26{fill:none;stroke:#F1AB00;stroke-width:0.2834;stroke-miterlimit:10;}
	.st27{fill:none;stroke:#FFFFFF;stroke-width:1.1334;stroke-linecap:round;stroke-linejoin:round;stroke-miterlimit:10;}
	.st28{fill:none;stroke:#3D5AC4;stroke-width:2.6489;stroke-miterlimit:10;}
	.st29{fill:none;stroke:#5571E9;stroke-width:2.6489;stroke-miterlimit:10;}
	.st30{fill:#2F4DAB;}
	.st31{fill:none;stroke:#231C61;stroke-width:2.1624;stroke-miterlimit:10;}
	.st32{fill:none;stroke:#231C61;stroke-width:1.1138;stroke-miterlimit:10;}
	.st33{fill:#373482;}
	.st34{fill:none;stroke:#5571E9;stroke-width:2.6489;stroke-linecap:round;stroke-linejoin:round;stroke-miterlimit:10;}
	.st35{clip-path:url(#XMLID_00000148640110367645951110000012142681640623579822_);fill:#FAFAFA;}
	.st36{fill:#E8C400;}
	.st37{clip-path:url(#XMLID_00000002358470455204665670000017056529320536929698_);fill:#FAFAFA;}
	.st38{fill:none;stroke:#3D5AC4;stroke-width:1.1366;stroke-linecap:round;stroke-linejoin:round;stroke-miterlimit:10;}
</style>
<g>
	<g>
		<g>
			<path class="st0" d="M1687.24,773.74c17.64-57.18,21.76-118.02,9.11-176.51c-19.79-91.5-83.53-202.26-267.49-250.06
				C1080.61,256.68,959.69-7.95,633.92,76.32c0,0-174.82,31.77-257.56,321.05C293.62,686.65-30.58,691.57,81.04,943.45
				c18.24,41.17,67.37,86.08,137.9,128.5l1321.1-4.44C1631.35,957.74,1659.76,862.79,1687.24,773.74z"/>
		</g>
		<g>
			<path class="st1" d="M1375.51,566.87h-49.57v-54.22c0-27.22-18.96-49.96-44.38-55.87v-67.3h-18.24v66.02
				c-29.26,2.64-52.2,27.2-52.2,57.15v55.82h-49.31v62.2h-3.32v115.59l-89.62-0.65V607.45H966.18V708.7h-72.05v98.35h-87.08v260.35
				h289.3v-0.04h62.14v0.04h362.77V739.09h-145.88L1375.51,566.87z"/>
			<polygon class="st1" points="352.72,709.96 352.72,580.53 401.24,580.53 401.24,511.31 419.48,511.31 419.48,580.53 
				464.18,580.53 464.18,709.96 514.33,709.96 514.33,787.5 594.26,787.5 594.26,523.36 761.12,523.36 761.12,1067.4 652.38,1067.4 
				605.54,1067.4 487.67,1067.4 433.24,1067.4 291,1067.4 291,709.96 			"/>
		</g>
	</g>
	<g>
		<g>
			<g>
				<path class="st2" d="M1264.34,1066.08l-760.52,0.59c-28.8,0.02-52.17-23.31-52.2-52.11l0,0l864.83-0.68l0,0
					C1316.47,1042.69,1293.14,1066.06,1264.34,1066.08z"/>
				<path class="st3" d="M1264.32,1048.13l-760.52,0.59c-22.48,0.02-41.6-14.22-48.94-34.16l-3.24,0
					c0.02,28.8,23.39,52.14,52.2,52.11l760.52-0.59c28.8-0.02,52.14-23.39,52.11-52.2l-3.24,0
					C1305.9,1033.84,1286.81,1048.11,1264.32,1048.13z"/>
				<path class="st4" d="M933.18,1031.65l-98.26,0.08c-9.64,0.01-17.46-7.8-17.47-17.45l0,0l133.18-0.1l0,0
					C950.63,1023.82,942.82,1031.64,933.18,1031.65z"/>
			</g>
			<g>
				<path class="st3" d="M1271.94,1013.92l-775.81,0.61l-0.37-468.27c-0.02-26.86,21.74-48.66,48.6-48.68l678.53-0.53
					c26.86-0.02,48.66,21.74,48.68,48.6L1271.94,1013.92z"/>
				<rect x="536.33" y="537.77" class="st5" width="695.01" height="436"/>
				<rect x="536.48" y="932.09" class="st6" width="695.01" height="41.68"/>
				<rect x="536.17" y="537.77" class="st6" width="695.01" height="20.69"/>
				<g>
					<polygon class="st7" points="767.95,537.86 536.34,769.83 536.5,974.04 537,974.04 972.66,537.7 					"/>
					<polygon class="st7" points="626.24,973.99 728.87,973.89 1164.53,537.55 1061.9,537.65 					"/>
					<polygon class="st7" points="1149.76,973.56 1231.45,891.75 1231.33,736.95 986.12,973.66 					"/>
				</g>
			</g>
		</g>
		<g>
			<defs>
				<rect id="XMLID_00000102541069781645062810000000925010382484671371_" x="495.76" y="723.99" width="776.18" height="85.68"/>
			</defs>
			<use xlink:href="#XMLID_00000102541069781645062810000000925010382484671371_"  style="overflow:visible;fill:#F5D100;"/>
			<clipPath id="XMLID_00000116937803252316655180000005418781580021694637_">
				<use xlink:href="#XMLID_00000102541069781645062810000000925010382484671371_"  style="overflow:visible;"/>
			</clipPath>
			<polygon style="clip-path:url(#XMLID_00000116937803252316655180000005418781580021694637_);fill:#FFFFFF;" points="
				592.59,839.74 525.81,839.74 583.29,708.23 650.08,708.23 			"/>
			<polygon style="clip-path:url(#XMLID_00000116937803252316655180000005418781580021694637_);fill:#FFFFFF;" points="
				735.02,839.74 668.23,839.74 725.72,708.23 792.5,708.23 			"/>
			<polygon style="clip-path:url(#XMLID_00000116937803252316655180000005418781580021694637_);fill:#FFFFFF;" points="
				877.44,839.74 810.65,839.74 868.14,708.23 934.92,708.23 			"/>
			<polygon style="clip-path:url(#XMLID_00000116937803252316655180000005418781580021694637_);fill:#FFFFFF;" points="
				1019.86,839.74 953.07,839.74 1010.56,708.23 1077.34,708.23 			"/>
			<polygon style="clip-path:url(#XMLID_00000116937803252316655180000005418781580021694637_);fill:#FFFFFF;" points="
				1162.28,839.74 1095.49,839.74 1152.98,708.23 1219.76,708.23 			"/>
		</g>
	</g>
	<g>
		<g>
			<g>
				<g>
					<g>
						<path class="st9" d="M433.44,576.05l-15.17,0.58l-8.88-2.82c-4.08-1.29-8.53,0.26-10.92,3.81l-1.12,1.66l44.36,24.5l8.58-18.4
							L433.44,576.05z"/>
						<path class="st9" d="M441.72,604.17l-44.71-24.69l1.56-2.83c0.31-0.56,1.01-0.76,1.57-0.45l43.69,24.13L441.72,604.17"/>
					</g>
					<polygon class="st10" points="450.28,585.39 462,565.11 450.28,544.18 433.44,576.05 					"/>
				</g>
				<path class="st9" d="M542.1,468.74c0,0-63.21-18.14-69.3-1.07c-6.09,17.07-42.97,92.58-42.97,92.58l27.53,14.36l41.28-71.7
					l55.55-4.83L542.1,468.74z"/>
			</g>
			<g>
				<g>
					<g>
						<path class="st9" d="M490.71,599.07l-12.38,7.88l-9.13,1.84c-4.2,0.85-7.34,4.36-7.71,8.62l-0.17,2l50.67-0.08l-1.42-20.25
							L490.71,599.07z"/>
						<path class="st9" d="M512.2,619.67l-51.07,0.08l0-3.23c0-0.64,0.52-1.16,1.15-1.16l49.92-0.08L512.2,619.67"/>
					</g>
					<polygon class="st10" points="510.58,599.09 512.2,565.11 492.01,562.83 490.71,599.07 					"/>
				</g>
				<path class="st11" d="M550.63,465.84l-59.58,2.71c0,0-8.57,0.47-7.99,20.53c0.58,20.06,0.52,100.77,0.52,100.77l28.62,0.99
					l5.48-84.55l59.64-0.74c12.57-0.16,24.27-7.36,29.24-18.91c1.9-4.42,2.82-9.37,1.64-14.57L550.63,465.84z"/>
			</g>
		</g>
		<g>
			<g>
				<g>
					<path class="st12" d="M494.09,453.82c0.01,5.65-3.82,6.51-9.47,6.52c-5.65,0.01-10.99-0.83-11-6.48
						c-0.01-5.65,4.56-10.25,10.22-10.26C489.49,443.59,494.08,448.17,494.09,453.82z"/>
					<path class="st12" d="M501.28,459.6l-11.83,0.02c-3.09,0.01-5.62-2.52-5.63-5.61l0,0c-0.01-3.09,2.52-5.62,5.61-5.63
						l11.83-0.02c3.09-0.01,5.62,2.52,5.63,5.61l0,0C506.9,457.06,504.37,459.59,501.28,459.6z"/>
				</g>
				<path class="st13" d="M500.83,460.8l-3.95-19.36l48.64-5.3l9.73-56.83c0.98-5.17,8.46-11.57,13.62-10.59l-1.49-0.42
					c5.17,0.98,9.91,6.98,8.93,12.15l-9.47,67.99c-0.7,3.67-3.47,6.59-7.1,7.48L500.83,460.8z"/>
			</g>
			<path class="st14" d="M598,369.96c1,0.08,1.99,0.31,2.92,0.67l0.49,0.19c8.35,3.26,14,12.22,14.38,20.62l-7.6,80.64
				c-50.4-0.44-57.56-6.24-57.56-6.24l4.01-82.49c0.61-7.78,4.18-15.1,13.04-15.83l0,0L598,369.96z"/>
			<g>
				<g>
					<g>
						<path class="st10" d="M542.5,460.16c0.39,5.64-3.38,6.75-9.02,7.14c-5.64,0.39-11.02-0.09-11.41-5.73
							c-0.39-5.64,3.87-10.53,9.51-10.91C537.22,450.26,542.11,454.52,542.5,460.16z"/>
						<path class="st10" d="M550.05,465.45l-11.8,0.81c-3.08,0.21-5.78-2.14-5.99-5.22l0,0c-0.21-3.08,2.14-5.78,5.22-5.99
							l11.8-0.81c3.08-0.21,5.78,2.14,5.99,5.22l0,0C555.49,462.54,553.14,465.24,550.05,465.45z"/>
					</g>
					<path class="st14" d="M549.68,466.68l-5.22-19.06l53.01-8.52l-3.01-49.29c0.64-5.22,6.36-11.09,11.58-10.45l0,0
						c5.22,0.64,10.35,6.31,9.72,11.53l3.82,59.06c-0.45,3.71-3.03,6.81-6.59,7.93L549.68,466.68z"/>
				</g>
			</g>
			<g>
				<path class="st15" d="M457.96,401.19l57.84,5.45c1.9,0.18,3.42,1.66,3.64,3.56l6.07,52.12c0.3,2.56-1.84,4.74-4.4,4.5
					l-58.8-5.54c-1.93-0.18-3.46-1.71-3.65-3.63l-5.11-52.03C453.3,403.08,455.43,400.95,457.96,401.19z"/>
				<path class="st16" d="M454.63,400.87l57.84,5.45c1.9,0.18,3.42,1.66,3.64,3.56l6.07,52.12c0.3,2.56-1.84,4.74-4.4,4.5
					l-58.8-5.54c-1.93-0.18-3.46-1.71-3.65-3.63l-5.11-52.03C449.97,402.76,452.1,400.63,454.63,400.87z"/>
				<path class="st15" d="M523.9,462.68l39.52,3.73c1.2,0.11,2.09,1.18,1.98,2.39l0,0c-0.11,1.2-1.18,2.09-2.39,1.98l-41.91-3.8
					L523.9,462.68z"/>
				<path class="st17" d="M487.78,432.49c-0.33,3.48-3.42,6.04-6.9,5.71c-3.48-0.33-6.04-3.42-5.71-6.9
					c0.33-3.48,3.42-6.04,6.9-5.71C485.55,425.92,488.11,429.01,487.78,432.49z"/>
			</g>
			<polygon class="st13" points="592.61,401.17 593.91,438.23 544.45,447.62 588.04,434 			"/>
		</g>
		<g>
			<g>
				<path class="st10" d="M566.37,365.04l3.31,8.87c1.19,3.2,4.15,5.41,7.56,5.64l0,0c6.47,0.44,11.12-6.11,8.58-12.07l-5.8-13.63
					L566.37,365.04z"/>
				<path class="st18" d="M569.32,372.95c0,0,16.29-3.08,13.9-17.32c-2.39-14.24-17.71-3.13-17.71-3.13l1.49,14.22L569.32,372.95z"
					/>
				<g>
					<g>
						<defs>
							<path id="XMLID_00000082330921339662462010000013284957141229909409_" d="M544.19,330.33c-5.98,12.78-0.46,27.99,12.32,33.97
								c12.78,5.98,27.99,0.46,33.97-12.32c5.98-12.78,0.46-27.99-12.33-33.97C565.38,312.03,550.17,317.55,544.19,330.33z"/>
						</defs>
						<use xlink:href="#XMLID_00000082330921339662462010000013284957141229909409_"  style="overflow:visible;fill:#EB8175;"/>
						<clipPath id="XMLID_00000111161519971451705350000004630537070725714061_">
							<use xlink:href="#XMLID_00000082330921339662462010000013284957141229909409_"  style="overflow:visible;"/>
						</clipPath>
						<path style="clip-path:url(#XMLID_00000111161519971451705350000004630537070725714061_);fill:#231C61;" d="M576.81,346.19
							c0,0-4.02,20.47,11.02,20.92c15.04,0.45,6.86-38.4,6.86-38.4l-23.81-23.96l-36.43,8.97l3.62,23.56c0,0,5.79,3.07,37.11-2.09
							L576.81,346.19z"/>
						<polygon style="clip-path:url(#XMLID_00000111161519971451705350000004630537070725714061_);fill:#231C61;" points="
							561.95,330.17 573.91,347.68 584.23,336.28 						"/>
					</g>
					<path class="st10" d="M572.79,341.44c-1.69,3.61-0.13,7.91,3.48,9.6c3.61,1.69,7.91,0.13,9.6-3.48
						c1.69-3.61,0.13-7.91-3.48-9.6C578.78,336.27,574.48,337.83,572.79,341.44z"/>
				</g>
			</g>
			<g>
				<path class="st20" d="M539.22,336.89c0,0-5.52-20.14,7.54-32.6c10.77-10.28,28.37-9.61,37.93,1.8
					c4.49,5.36,8.1,13.43,8.43,25.56L539.22,336.89z"/>
				<path class="st21" d="M542,336.55l-0.15-12.57c-0.04-3.19,2.45-5.84,5.64-5.98l0,0c3.14-0.15,5.85,2.19,6.17,5.32l1.26,12.55"/>
				<line class="st22" x1="593.12" y1="331.65" x2="534.48" y2="337.27"/>
			</g>
		</g>
	</g>
	<g>
		<g>
			<g>
				<polygon class="st10" points="1126.96,1011.05 1140.1,1023.78 1125.12,1031.84 1112.28,1019.27 				"/>
				<path class="st9" d="M1034.44,915.93l8.78,38.87c1.76,7.78,5.14,15.26,10,22.11l57.82,51.94l22.87-18.63l-49.37-52.28
					l-18.08-68.94L1034.44,915.93z"/>
				<g>
					<path class="st9" d="M1124.68,1031.47l-4.74,15.11l-5.41,7.53c-2.49,3.46-2.4,8.14,0.22,11.5l1.23,1.57l36.89-34.37
						l-14.75-13.8L1124.68,1031.47z"/>
					<polyline class="st9" points="1153.24,1032.92 1116.06,1067.56 1113.08,1064.37 1150.27,1029.73 1153.24,1032.92 					"/>
				</g>
			</g>
			<g>
				<polygon class="st10" points="1000.53,1034.69 995.6,1051.16 978.67,1046.62 983.62,1030.45 				"/>
				<path class="st11" d="M1023.23,872.57l-47.43,160.31l29.92,7.47l26.7-80.37l32.79-52.58c1.67-2.35,3.3-4.81,4.69-7.35
					c2.62-4.81,3.81-10.06,3.75-15.32l-0.11-10.43L1023.23,872.57z"/>
				<g>
					<path class="st9" d="M979.65,1045.03l-14.96,5.53l-9.33,0.32c-4.29,0.15-7.97,3.11-9.04,7.26l-0.5,1.94l50.12,8.25l1.92-20.26
						L979.65,1045.03z"/>
					<polyline class="st9" points="996.09,1068.69 945.57,1060.38 946.28,1056.04 996.8,1064.35 996.09,1068.69 					"/>
				</g>
			</g>
		</g>
		<g>
			<g>
				<g>
					<polygon class="st23" points="957.04,709.74 937.88,739.65 947.06,746.24 966.9,714.6 					"/>
					<path class="st24" d="M932.15,660.18c0,0,8.86,37.07,53.73,51.66c1.3,0.42,2.28,1.5,2.46,2.86c0.57,4.29,0.58,13.57-9.35,16.32
						c-0.94,0.26-1.98,0.07-2.81-0.45c-6.86-4.3-40.63-24.03-73.4-18.34L932.15,660.18z"/>
					<path class="st23" d="M932.15,660.18c0,0-8.23,36.98-29.36,52.05C902.79,712.23,905.77,679.81,932.15,660.18z"/>
				</g>
				<g>
					<g>
						<g>
							<path class="st10" d="M931.63,737.71c-1.39,6.8,4.21,15.11,11.02,16.5c6.8,1.39,13.45-3,14.84-9.8
								c1.39-6.8-4.21-15.11-11.01-16.5C939.66,726.51,933.02,730.9,931.63,737.71z"/>
						</g>
						<polyline class="st10" points="967.64,757.68 954.35,743.8 945.67,754.48 967.64,770.58 						"/>
					</g>
					<path class="st13" d="M965.53,744.84l-14.05,20.88l38.41,35.15c2.34,0.67,4.79,0.9,7.22,0.7l50.71-6.57
						c7.99-0.38,14.16-7.16,13.78-15.15l0,0c-0.38-7.99,1.15-19.56-6.84-19.18l-58.92,12.1L965.53,744.84z"/>
				</g>
			</g>
			<g>
				<g>
					<path class="st14" d="M1079.26,792.76c1.35-11.08-3.67-22.04-13.07-28.07c-4.22-2.71-8.41-4.53-11.43-4.02
						c-10.11,1.71-20.51,6.29-24.96,19.94c-7.57,23.22-9.73,91.85-9.73,91.85l54.36,1.85L1079.26,792.76z"/>
				</g>
				<polygon class="st13" points="1059.2,794.49 1075.54,854.55 1078.84,803.59 				"/>
			</g>
			<g>
				<g>
					<g>
						<path class="st10" d="M1125.82,913.01c5.14-4.67,5.52-14.68,0.84-19.82c-4.67-5.14-12.62-5.52-17.76-0.84
							c-5.14,4.67-5.52,14.68-0.84,19.82C1112.72,917.3,1120.68,917.68,1125.82,913.01z"/>
					</g>
					<polyline class="st10" points="1101.15,870.23 1111.07,894.68 1124.38,891.18 1116.14,865.22 					"/>
				</g>
				<path class="st14" d="M1101.79,889.1l27.22-5.99l-18.46-63.14c-0.68-2.34-1.79-4.54-3.26-6.48l-33.89-42.19
					c-4.58-6.56-12.3-5.39-18.86-0.81l0,0c-6.56,4.58-8.17,13.61-3.59,20.17l32.64,39.24L1101.79,889.1z"/>
			</g>
		</g>
		<g>
			<g>
				<path class="st10" d="M1042.04,752.41l1.03,9.52c0.37,3.43,2.72,6.33,6.01,7.41l0,0c6.23,2.04,12.42-3.22,11.42-9.7l-2.29-14.8
					L1042.04,752.41z"/>
				<path class="st18" d="M1042.95,760.89c0,0,16.79-0.55,17.99-15.1c1.2-14.56-16.64-5.89-16.64-5.89l-2.08,14.31L1042.95,760.89z"
					/>
				<g>
					<g>
						<defs>
							<path id="XMLID_00000074425501690984769050000018070111747055202220_" d="M1028.94,712.86c-9.04,11.04-7.42,27.33,3.62,36.37
								c11.04,9.04,27.33,7.42,36.37-3.62c9.04-11.04,7.42-27.33-3.62-36.37C1054.26,700.19,1037.98,701.82,1028.94,712.86z"/>
						</defs>
						<use xlink:href="#XMLID_00000074425501690984769050000018070111747055202220_"  style="overflow:visible;fill:#EB8175;"/>
						<clipPath id="XMLID_00000072958783398062303570000007730096752324102577_">
							<use xlink:href="#XMLID_00000074425501690984769050000018070111747055202220_"  style="overflow:visible;"/>
						</clipPath>
						<path style="clip-path:url(#XMLID_00000072958783398062303570000007730096752324102577_);fill:#231C61;" d="M1056.96,736.53
							c0,0-9.04,19.06,5.6,23.25c14.64,4.18,16.28-35.93,16.28-35.93l-17.38-29.42l-37.95-0.28l-2.32,23.99c0,0,4.91,4.46,36.9,7.2
							L1056.96,736.53z"/>
						<polygon style="clip-path:url(#XMLID_00000072958783398062303570000007730096752324102577_);fill:#231C61;" points="
							1046.38,717.13 1053.75,737.27 1066.7,728.66 						"/>
					</g>
					<path class="st10" d="M1054.21,730.87c-2.56,3.12-2.1,7.72,1.02,10.28c3.12,2.56,7.72,2.1,10.28-1.02
						c2.56-3.12,2.1-7.72-1.02-10.28C1061.37,727.29,1056.76,727.75,1054.21,730.87z"/>
				</g>
			</g>
			<g>
				<path class="st20" d="M1022.28,720.27c0,0-1.27-21.08,14.26-30.7c12.8-7.93,30.08-3.6,37.16,9.69
					c3.33,6.24,5.21,14.98,3.01,27.06L1022.28,720.27z"/>
				<path class="st26" d="M1025.09,720.51l2.47-12.48c0.63-3.16,3.65-5.26,6.83-4.75l0,0c3.14,0.51,5.34,3.39,4.99,6.55l-1.37,12.68
					"/>
				<line class="st27" x1="1076.71" y1="726.32" x2="1017.5" y2="719.66"/>
			</g>
		</g>
	</g>
	<g>
		<g>
			<line class="st28" x1="1438.06" y1="879.54" x2="1376.81" y2="939.93"/>
			<line class="st28" x1="1438.06" y1="815.01" x2="1376.81" y2="875.4"/>
			<line class="st28" x1="1438.06" y1="750.48" x2="1376.81" y2="810.87"/>
			<line class="st28" x1="1438.06" y1="685.95" x2="1376.81" y2="746.34"/>
			<line class="st28" x1="1438.06" y1="621.41" x2="1376.81" y2="681.8"/>
			<line class="st28" x1="1438.06" y1="556.88" x2="1376.81" y2="617.27"/>
			<line class="st28" x1="1438.06" y1="492.35" x2="1376.81" y2="552.74"/>
			<line class="st28" x1="1438.06" y1="427.82" x2="1376.81" y2="488.21"/>
			<line class="st28" x1="1438.06" y1="363.29" x2="1376.81" y2="423.67"/>
			<line class="st28" x1="1438.06" y1="298.75" x2="1376.81" y2="359.14"/>
			<line class="st28" x1="1438.06" y1="234.22" x2="1376.81" y2="294.61"/>
			<line class="st28" x1="1376.81" y1="875.4" x2="1438.06" y2="875.4"/>
			<line class="st28" x1="1376.81" y1="810.87" x2="1438.06" y2="810.87"/>
			<line class="st28" x1="1376.81" y1="746.34" x2="1438.06" y2="746.34"/>
			<line class="st28" x1="1376.81" y1="681.8" x2="1438.06" y2="681.8"/>
			<line class="st28" x1="1376.81" y1="617.27" x2="1438.06" y2="617.27"/>
			<line class="st28" x1="1376.81" y1="552.74" x2="1438.06" y2="552.74"/>
			<line class="st28" x1="1376.81" y1="488.21" x2="1438.06" y2="488.21"/>
			<line class="st28" x1="1376.81" y1="423.67" x2="1438.06" y2="423.67"/>
			<line class="st28" x1="1376.81" y1="359.14" x2="1438.06" y2="359.14"/>
			<line class="st28" x1="1376.81" y1="294.61" x2="1438.06" y2="294.61"/>
			<line class="st29" x1="1376.81" y1="957.42" x2="1376.81" y2="244.54"/>
			<line class="st29" x1="1438.06" y1="957.42" x2="1438.06" y2="244.54"/>
			<rect x="1345.23" y="939.93" class="st11" width="121.99" height="126.75"/>
		</g>
		<g>
			<g>
				<path class="st2" d="M1454.3,244.54h-95.9c-2.38,0-4.3-1.93-4.3-4.3V128.13c0-2.38,1.93-4.3,4.3-4.3h95.9
					c2.38,0,4.3,1.93,4.3,4.3v112.11C1458.6,242.62,1456.67,244.54,1454.3,244.54z"/>
				<path class="st30" d="M1416.84,209.41h-53.22v-56.47h53.22c1.8,0,3.26,1.46,3.26,3.26v49.96
					C1420.1,207.96,1418.64,209.41,1416.84,209.41z"/>
			</g>
			<g>
				<g>
					<line class="st31" x1="972.66" y1="251.13" x2="1021.67" y2="393.48"/>
					<line class="st31" x1="938.58" y1="234.22" x2="843.02" y2="363.29"/>
					<g>
						<path class="st20" d="M951.6,277.25l129.78,169.71c2.29,3,1.72,7.29-1.28,9.59L910.39,586.33c-3,2.29-7.29,1.72-9.59-1.28
							L771.02,415.34c-2.29-3-1.72-7.29,1.28-9.59l169.71-129.78C945.01,273.68,949.3,274.25,951.6,277.25z"/>
						<path class="st32" d="M946.98,305.23l106.18,138.86c1.88,2.45,1.41,5.97-1.05,7.84L913.26,558.12
							c-2.45,1.88-5.97,1.41-7.84-1.05L799.24,418.21c-1.88-2.45-1.41-5.97,1.05-7.84l138.86-106.18
							C941.59,302.31,945.1,302.78,946.98,305.23z"/>
						<g>
							<path class="st11" d="M934.58,479.34c-2.56,19.17-31.65,15.29-29.09-3.88C908.07,456.12,937.16,459.99,934.58,479.34z
								 M947.09,372.24l-11.42,80.58l-24.46-3.26c3.61-27.11,6.62-53.45,10.26-80.73L947.09,372.24z"/>
						</g>
					</g>
				</g>
				<g>
					<g>
						<circle class="st11" cx="958.68" cy="222.16" r="40.97"/>
						<path class="st33" d="M987.65,222.16c0,16-12.97,28.97-28.97,28.97s-28.97-12.97-28.97-28.97c0-16,12.97-28.97,28.97-28.97
							S987.65,206.16,987.65,222.16z"/>
					</g>
					<g>
						<line class="st28" x1="1119.33" y1="37" x2="1119.33" y2="123.83"/>
						<line class="st28" x1="1041.46" y1="37" x2="1041.46" y2="123.83"/>
						<line class="st28" x1="1196.94" y1="37" x2="1196.94" y2="123.83"/>
						<line class="st28" x1="1283.18" y1="37" x2="1283.18" y2="123.83"/>
						<line class="st28" x1="1363.62" y1="37" x2="1363.62" y2="123.83"/>
						<line class="st28" x1="1447.03" y1="37" x2="1447.03" y2="123.83"/>
						<line class="st28" x1="1528.95" y1="37" x2="1528.95" y2="123.83"/>
						<line class="st28" x1="1037.4" y1="123.83" x2="1119.33" y2="37"/>
						<line class="st28" x1="1119.33" y1="123.83" x2="1201.25" y2="37"/>
						<line class="st28" x1="1201.25" y1="123.83" x2="1283.18" y2="37"/>
						<line class="st28" x1="1283.18" y1="123.83" x2="1365.1" y2="37"/>
						<line class="st28" x1="1365.1" y1="123.83" x2="1447.03" y2="37"/>
						<line class="st28" x1="1447.03" y1="123.83" x2="1528.95" y2="37"/>
						<polygon class="st34" points="958.68,123.83 1626.64,123.83 1536.7,37 1027.78,37 						"/>
						<line class="st34" x1="958.68" y1="123.83" x2="958.68" y2="222.16"/>
					</g>
				</g>
			</g>
		</g>
	</g>
	<g>
		<g>
			<g>
				<defs>
					<path id="XMLID_00000016784826844704789290000014105156973155560359_" d="M605.54,1054.95L652.3,934.1
						c2.23-5.76,10.38-5.76,12.61,0l46.76,120.84H605.54z"/>
				</defs>
				<use xlink:href="#XMLID_00000016784826844704789290000014105156973155560359_"  style="overflow:visible;fill:#F5D100;"/>
				<clipPath id="XMLID_00000165222540097209668020000007004302773221633172_">
					<use xlink:href="#XMLID_00000016784826844704789290000014105156973155560359_"  style="overflow:visible;"/>
				</clipPath>
				
					<rect x="616.38" y="960.09" style="clip-path:url(#XMLID_00000165222540097209668020000007004302773221633172_);fill:#FAFAFA;" width="83.02" height="25.65"/>
				
					<rect x="611.84" y="1008.56" style="clip-path:url(#XMLID_00000165222540097209668020000007004302773221633172_);fill:#FAFAFA;" width="93.9" height="25.65"/>
			</g>
			<rect x="597" y="1054.95" class="st36" width="123.75" height="10.18"/>
		</g>
		<g>
			<g>
				<defs>
					<path id="XMLID_00000046332831323933529300000007439449918586878094_" d="M1284.48,1055.32l46.76-120.84
						c2.23-5.76,10.38-5.76,12.61,0l46.76,120.84H1284.48z"/>
				</defs>
				<use xlink:href="#XMLID_00000046332831323933529300000007439449918586878094_"  style="overflow:visible;fill:#F5D100;"/>
				<clipPath id="XMLID_00000072983762118448720180000012289067884103457722_">
					<use xlink:href="#XMLID_00000046332831323933529300000007439449918586878094_"  style="overflow:visible;"/>
				</clipPath>
				
					<rect x="1295.32" y="960.46" style="clip-path:url(#XMLID_00000072983762118448720180000012289067884103457722_);fill:#FAFAFA;" width="83.02" height="25.65"/>
				
					<rect x="1290.78" y="1008.93" style="clip-path:url(#XMLID_00000072983762118448720180000012289067884103457722_);fill:#FAFAFA;" width="93.89" height="25.65"/>
			</g>
			<rect x="1275.94" y="1055.32" class="st36" width="123.75" height="10.18"/>
		</g>
	</g>
	<g>
		<g>
			
				<ellipse transform="matrix(0.1473 -0.9891 0.9891 0.1473 -543.8629 1075.0745)" class="st3" cx="351.59" cy="852.97" rx="97.1" ry="97.1"/>
			<g>
				<line class="st38" x1="351.59" y1="818.36" x2="351.59" y2="1065.13"/>
				<line class="st38" x1="313.83" y1="823.39" x2="351.59" y2="865.73"/>
				<path class="st38" d="M385.08,863.4c-2.7,2.7-33.49,34.76-33.49,34.76"/>
			</g>
		</g>
		<line class="st38" x1="59.33" y1="1067.51" x2="1688.05" y2="1067.51"/>
	</g>
</g>
</svg>
